PathFileType	4	(X/Y/Z)	Patient4_TMGait_0pt7_01_left_07.trc.trc
DataRate	CameraRate	NumFrames	NumMarkers	Units	OrigDataRate	OrigDataStartFrame	OrigNumFrames
86.956521739130	86.956521739130	4	33	mm	86.956521739130	106	       141
Frame#	Time	Sacral			L.Shoulder			Chest			R.Shoulder			Neck			R.ASIS			L.ASIS			R.Thigh.Superior			R.Thigh.Lateral			R.Thigh.Inferior			R.Patella			L.Thigh.Superior			L.Thigh.Lateral			L.Thigh.Inferior			L.Patella			L.Shank.Superior			L.Shank.Lateral			L.Shank.Inferior			R.Shank.Superior			R.Shank.Lateral			R.Shank.Inferior			R.Heel			R.Midfoot.Superior			R.Midfoot.Lateral			R.Toe			L.Heel			L.Midfoot.Lateral			L.Midfoot.Superior			L.Toe			L.Elbow			L.Wrist			R.Elbow			R.Wrist			
		X1	Y1	Z1	X2	Y2	Z2	X3	Y3	Z3	X4	Y4	Z4	X5	Y5	Z5	X6	Y6	Z6	X7	Y7	Z7	X8	Y8	Z8	X9	Y9	Z9	X10	Y10	Z10	X11	Y11	Z11	X12	Y12	Z12	X13	Y13	Z13	X14	Y14	Z14	X15	Y15	Z15	X16	Y16	Z16	X17	Y17	Z17	X18	Y18	Z18	X19	Y19	Z19	X20	Y20	Z20	X21	Y21	Z21	X22	Y22	Z22	X23	Y23	Z23	X24	Y24	Z24	X25	Y25	Z25	X26	Y26	Z26	X27	Y27	Z27	X28	Y28	Z28	X29	Y29	Z29	X30	Y30	Z30	X31	Y31	Z31	X32	Y32	Z32	X33	Y33	Z33	

106	9.267500000000	747.692725904611	1009.126900408232	535.099288739499	914.234666997558	1431.125140346676	329.374698743187	1036.186807631994	1355.087925830641	474.690870255411	984.143016139729	1435.806034069981	657.539614637729	947.252123692796	1492.612835816357	482.626375193498	984.758811352220	946.623971091953	631.909907617420	944.332333421576	960.250272964719	358.647400309974	1005.419195609207	740.524834273098	605.086580039629	914.712248832947	636.488700207376	666.564545043331	984.407007517299	579.064899227958	586.128832331169	976.282340829837	493.906805523915	590.022308822098	1039.134998887471	799.954771351960	384.471735885598	1007.828080457139	669.412428595625	302.637222316668	1120.966746522446	618.799600066591	356.036780358752	1147.033393636695	534.005510251765	345.683638036908	1097.984635937537	456.257968835102	341.376740776161	971.915256395777	376.781471208611	298.793052006300	999.971649432624	248.869963687325	352.046726796263	949.039933001885	406.367136429047	595.245347478217	877.253039269299	301.868991228846	655.384467973257	920.085820600413	208.415649520045	588.352023763467	786.855376781132	42.238560208363	555.047770789505	959.206659415839	97.139433224064	585.626632879322	872.656902491688	36.396757971699	626.655040959357	1080.226559149066	45.123303783826	608.637585372897	838.675256877602	132.011746801975	397.554305559132	902.412874559413	106.259426449437	313.376422994926	1001.607005246640	143.537194440773	330.263816213872	1106.189409611472	59.604997950701	295.344562574990	811.498990064454	1088.055830274901	240.045280855606	910.639482893936	845.886438460577	243.097331849813	1006.927064851310	1089.698732867170	789.310144960354	1184.006291937779	906.857450949690	730.285376638061	
107	9.279000000000	747.226875970644	1009.377585080655	535.773140380453	913.271992814149	1431.224293622407	330.058717080181	1035.748875379265	1355.018831012578	474.843974220784	984.338182877285	1435.578544476652	658.015767015124	946.612089434232	1492.542924841243	483.396863806637	984.159005949619	946.488295768787	632.037025230729	943.558962363339	960.196632882782	358.751131540729	1002.010035841615	739.828052403511	605.069520743380	910.134010637349	636.688657982529	667.076388348774	978.754747021860	578.426718463092	586.639585286569	969.655166977695	493.521365085020	590.700073984735	1038.295745748325	800.987226760877	385.104941689516	1008.625313919872	670.203537487098	302.761456192907	1121.510294803277	620.500373363922	357.028079411005	1149.162669623196	537.434704724595	346.466608249392	1104.057562251079	458.816582176276	341.540666285217	983.556181120945	372.035614891605	297.908147745394	1019.555815180358	245.593497817634	350.585381376304	942.012360741358	406.269997881754	595.756069717576	869.739409602743	301.975571453161	655.656312529589	912.419883963397	208.410573013638	588.667330133940	778.760790103977	42.360987158928	555.088992607127	951.218684996000	97.106021189802	585.730326570206	864.570866153922	36.458103507260	626.769050939036	1072.159950805745	44.805478833576	608.750191330324	866.130216587415	118.500972581536	395.039790952983	931.596643178495	97.240480971746	310.973954663715	1028.176823538309	140.452052637414	328.339219194300	1137.882462659553	63.311795494263	293.521004252490	806.549991179329	1089.092408494265	242.348877060570	887.964135718047	840.252052323168	244.938388370309	1017.429670470855	1090.142049530892	788.279625295253	1205.466845444786	921.715330923500	722.582812755112	
108	9.290500000000	746.874501901731	1009.472319820102	536.213800635982	912.430282964398	1431.176218363618	330.580554628809	1035.346358149162	1354.821837687870	474.907245325630	984.457316349523	1435.235687619339	658.366613544684	945.967997308027	1492.347028639421	484.032313439498	983.594885972472	946.304744081590	632.164588297812	943.028786302700	959.934798155769	358.782144709231	998.772444650702	739.091919703858	605.179472149746	905.650986765640	636.838629638706	667.553933147876	973.284812684376	577.777325925015	587.171462976306	963.227654259892	493.103036400673	591.360577300972	1037.295679199670	801.364075294967	385.720000103019	1008.983322792186	670.421939330577	302.839855017536	1121.355672422153	621.316873394517	358.221514837020	1150.467782248107	540.164206276120	347.511922452719	1109.356255070030	461.010124648617	341.890842089940	995.129070612462	367.209500256800	296.759560732976	1038.848137479958	242.768294345817	349.075765190593	935.137097938055	406.150564859404	596.246590024062	862.346475687106	302.076235469643	655.903781646597	904.829810981331	208.390728363245	588.959978934691	770.667010328077	42.494280473561	555.127143622816	943.250439039790	97.075141988697	585.830610888202	856.484588187392	36.525768858474	626.879829983085	1064.101207079836	44.482270126895	608.862193164925	893.861877397418	105.947069145935	391.946792930893	961.119239292391	89.148922300393	308.321010200164	1054.639225067781	138.132190144604	326.484074436628	1169.134896072622	67.990725444157	292.388228069525	801.664195456489	1090.152555382993	244.271831485645	865.554550039865	836.179111168982	246.681825256064	1027.819370777738	1090.844494187871	786.896215175408	1225.802309388440	938.039510658100	714.436195284682	
109	9.302000000000	746.637287821874	1009.406282560967	536.406382118636	911.714065649949	1430.988914315345	330.932875220885	1034.973114415858	1354.505648871304	474.882509204432	984.481154723936	1434.782165722500	658.586179848579	945.322957996951	1492.029883082163	484.522784253803	983.072461790573	946.079446241381	632.301925491989	942.759764585106	959.463196749682	358.743116450054	995.750645368762	738.310650089146	605.451119569379	901.287702197520	636.929533931435	667.991482012930	968.038952828025	577.112204811385	587.724128835421	957.043667225793	492.643768597084	591.981126219327	1036.187692542371	801.098714023822	386.311989191595	1008.928516649623	670.082348783348	302.842559283091	1120.585025433944	621.277795507537	359.531917799353	1151.028753057248	542.194902630560	348.762691183998	1113.896686750408	462.835234683206	342.394777514720	1006.514398734048	362.431374321360	295.386526040308	1057.590627443855	240.479857180488	347.580037522000	928.453137202810	405.996248625000	596.698655146658	855.108216542996	302.168533129080	656.115983819702	897.333134784330	208.349908673704	589.217210288882	762.576537407659	42.635321866036	555.162183285241	935.300302038649	97.046297060225	585.928015953532	848.397596210234	36.597493018823	626.980413187724	1056.050438489616	44.159831152628	608.974946260485	921.438135062309	94.588545937608	388.432086093163	990.525976744718	82.149905505696	305.547943406156	1080.614959517965	136.651091286772	324.769144158254	1199.504704081753	73.596856279039	291.980831314931	796.818626835196	1091.264026772752	245.781163681878	843.717581759755	833.631541227008	248.350712068550	1038.089234903549	1091.809385127413	785.128958428449	1244.845237397724	955.687916230481	705.947998240902	
